<svg width="20" height="20" fill="none" xmlns="http://www.w3.org/2000/svg"><path d="m14 .667.354-.354-.147-.146H14v.5Zm4 4h.5V4.46l-.146-.147-.354.354Zm-1.333 14.166H3.333v1h13.334v-1ZM2.5 18V2h-1v16h1Zm.833-16.833H14v-1H3.333v1Zm14.167 3.5V18h1V4.667h-1ZM13.646 1.02l4 4 .708-.707-4-4-.708.707ZM3.333 18.833A.833.833 0 0 1 2.5 18h-1c0 1.012.82 1.833 1.833 1.833v-1Zm13.334 1c1.012 0 1.833-.82 1.833-1.833h-1c0 .46-.373.833-.833.833v1ZM2.5 2c0-.46.373-.833.833-.833v-1C2.321.167 1.5.987 1.5 2h1Zm7 4.667v6.666h1V6.667h-1ZM6.667 10.5h6.666v-1H6.667v1Z" fill="currentColor"/></svg>