<svg xmlns="http://www.w3.org/2000/svg" width="200" height="200" viewBox="0 0 100 100" preserveAspectRatio="xMidYMid" display="block"><rect x="48.5" y="24" rx="1.5" ry="6" width="3" height="12" fill="#c1c1c1"><animate attributeName="opacity" values="1;0" keyTimes="0;1" dur="1.075268817204301s" begin="-0.985663082437276s" repeatCount="indefinite"/></rect><rect x="48.5" y="24" rx="1.5" ry="6" width="3" height="12" fill="#c1c1c1" transform="rotate(30 50 50)"><animate attributeName="opacity" values="1;0" keyTimes="0;1" dur="1.075268817204301s" begin="-0.8960573476702509s" repeatCount="indefinite"/></rect><rect x="48.5" y="24" rx="1.5" ry="6" width="3" height="12" fill="#c1c1c1" transform="rotate(60 50 50)"><animate attributeName="opacity" values="1;0" keyTimes="0;1" dur="1.075268817204301s" begin="-0.8064516129032258s" repeatCount="indefinite"/></rect><rect x="48.5" y="24" rx="1.5" ry="6" width="3" height="12" fill="#c1c1c1" transform="rotate(90 50 50)"><animate attributeName="opacity" values="1;0" keyTimes="0;1" dur="1.075268817204301s" begin="-0.7168458781362007s" repeatCount="indefinite"/></rect><rect x="48.5" y="24" rx="1.5" ry="6" width="3" height="12" fill="#c1c1c1" transform="rotate(120 50 50)"><animate attributeName="opacity" values="1;0" keyTimes="0;1" dur="1.075268817204301s" begin="-0.6272401433691757s" repeatCount="indefinite"/></rect><rect x="48.5" y="24" rx="1.5" ry="6" width="3" height="12" fill="#c1c1c1" transform="rotate(150 50 50)"><animate attributeName="opacity" values="1;0" keyTimes="0;1" dur="1.075268817204301s" begin="-0.5376344086021505s" repeatCount="indefinite"/></rect><rect x="48.5" y="24" rx="1.5" ry="6" width="3" height="12" fill="#c1c1c1" transform="rotate(180 50 50)"><animate attributeName="opacity" values="1;0" keyTimes="0;1" dur="1.075268817204301s" begin="-0.44802867383512546s" repeatCount="indefinite"/></rect><rect x="48.5" y="24" rx="1.5" ry="6" width="3" height="12" fill="#c1c1c1" transform="rotate(210 50 50)"><animate attributeName="opacity" values="1;0" keyTimes="0;1" dur="1.075268817204301s" begin="-0.35842293906810035s" repeatCount="indefinite"/></rect><rect x="48.5" y="24" rx="1.5" ry="6" width="3" height="12" fill="#c1c1c1" transform="rotate(240 50 50)"><animate attributeName="opacity" values="1;0" keyTimes="0;1" dur="1.075268817204301s" begin="-0.26881720430107525s" repeatCount="indefinite"/></rect><rect x="48.5" y="24" rx="1.5" ry="6" width="3" height="12" fill="#c1c1c1" transform="rotate(270 50 50)"><animate attributeName="opacity" values="1;0" keyTimes="0;1" dur="1.075268817204301s" begin="-0.17921146953405018s" repeatCount="indefinite"/></rect><rect x="48.5" y="24" rx="1.5" ry="6" width="3" height="12" fill="#c1c1c1" transform="rotate(300 50 50)"><animate attributeName="opacity" values="1;0" keyTimes="0;1" dur="1.075268817204301s" begin="-0.08960573476702509s" repeatCount="indefinite"/></rect><rect x="48.5" y="24" rx="1.5" ry="6" width="3" height="12" fill="#c1c1c1" transform="rotate(330 50 50)"><animate attributeName="opacity" values="1;0" keyTimes="0;1" dur="1.075268817204301s" begin="0s" repeatCount="indefinite"/></rect></svg>